<?xml version="1.0" encoding="utf-8"?>
<!-- Generator: Adobe Illustrator 21.0.2, SVG Export Plug-In . SVG Version: 6.00 Build 0)  -->
<svg version="1.1" id="Layer_1" xmlns="http://www.w3.org/2000/svg" xmlns:xlink="http://www.w3.org/1999/xlink" x="0px" y="0px"
	 viewBox="0 0 422.4 422.4" style="enable-background:new 0 0 422.4 422.4;" xml:space="preserve">
<style type="text/css">
	.st0{fill:#333333;}
</style>
<g>
	<g>
		<path class="st0" d="M207.5,10.3c26.2,0,52.4,5.1,76.6,15.1c24.2,10,46.5,24.8,65,43.3c18.6,18.5,33.6,40.6,43.8,64.9
			c10.2,24.2,15.5,50.5,15.6,76.8c0.1,26.3-4.9,52.7-14.9,77.1c-10,24.4-24.8,46.9-43.4,65.6c-18.6,18.7-41,33.7-65.4,43.9
			c-24.4,10.2-50.8,15.4-77.3,15.5c-26.4,0-52.9-5.3-77.3-15.5c-24.4-10.2-46.7-25.2-65.4-43.9c-18.6-18.7-33.5-41.2-43.4-65.6
			c-10-24.4-15.1-50.8-14.9-77.1c0.1-26.3,5.4-52.6,15.6-76.8c10.2-24.2,25.2-46.4,43.8-64.9c18.6-18.5,40.8-33.3,65-43.3
			C155.1,15.3,181.3,10.2,207.5,10.3z M207.5,10.3c-26.2,0.1-52.4,5.3-76.5,15.3c-24.2,10.1-46.3,24.9-64.7,43.5
			c-18.5,18.5-33.1,40.8-43,64.9c-9.9,24.2-14.9,50.3-14.8,76.3c0.1,26.1,5.4,52.1,15.5,76c10,24,24.9,45.9,43.3,64.2
			c18.4,18.3,40.4,33,64.4,42.9c24,9.9,49.9,14.9,75.9,14.9c25.9,0,51.9-5,75.9-14.9c24-9.9,46-24.6,64.4-42.9
			c18.4-18.3,33.3-40.2,43.3-64.2c10.1-24,15.3-50,15.5-76c0.1-26.1-4.9-52.2-14.8-76.3c-9.9-24.2-24.6-46.4-43-64.9
			c-18.5-18.5-40.6-33.4-64.7-43.5C259.8,15.5,233.7,10.3,207.5,10.3z"/>
	</g>
	<g>
		<path class="st0" d="M221,351.2l-76.6,0.7c-12.8,0.2-25.7,0.3-38.6,0.4l-38.8,0.3l-1.3,0l0-1.3l-1.1-67.9l-0.9-67.9l-0.9-67.9
			c-0.3-22.6-0.5-45.3-0.7-67.9l-0.1-7.2l3.6,6.3l39.3,68.4c13.1,22.8,26,45.6,39,68.4L221,351.2z M221,351.2L141,215.3
			c-13.2-22.5-26.5-45-39.6-67.4L62.2,80.4l3.5-1c0.3,22.6,0.7,45.3,0.9,67.9l0.6,67.9l0.6,67.9l0.4,67.9l-1.3-1.3l38.2,0.3
			c12.8,0.1,25.5,0.2,38.4,0.4l38.6,0.4L221,351.2z"/>
	</g>
	<g>
		<path class="st0" d="M221,351.2l14.8-0.3l14.8-0.2l29.7-0.4l59.4-0.6l-1.5,1.5l-0.2-17.6l-0.1-17.6l-0.2-35.3
			c0-23.5-0.1-47-0.1-70.5l0.1-35.3l0.2-35.3c0-11.8,0.1-23.5,0.3-35.3l0.3-35.3l1.2,1.2l-20.1-0.2l-20.1-0.3l-20.1-0.3l-20.1-0.4
			l20.1-0.4l20.1-0.3l20.1-0.3l20.1-0.2l1.2,0l0,1.2l0.3,35.3c0.1,11.8,0.2,23.5,0.3,35.3l0.2,35.3l0.1,35.3c0.1,23.5,0,47-0.1,70.5
			l-0.2,35.3l-0.1,17.6l-0.2,17.6l0,1.5l-1.5,0l-59.4-0.6l-29.7-0.4l-14.8-0.2L221,351.2z"/>
	</g>
</g>
</svg>
