<!--?xml version="1.0" encoding="utf-8"?-->
<!-- Generator: Adobe Illustrator 21.0.2, SVG Export Plug-In . SVG Version: 6.00 Build 0)  -->
<svg version="1.1" id="Layer_1" xmlns="http://www.w3.org/2000/svg" xmlns:xlink="http://www.w3.org/1999/xlink" x="0px" y="0px" viewBox="0 0 896 137" xml:space="preserve">
<style type="text/css">
	.st0{fill:none;stroke:#333333;stroke-width:4;stroke-miterlimit:10;}
</style>
<g>
	<path class="st0 sDPdAtWI_0" d="M80,105.1L16,105.1L16,17.2Z"></path>
	<path class="st0 sDPdAtWI_1" d="M144.5,53.6L144.5,104.6L103.5,104.6L103.5,47.6"></path>
	<path class="st0 sDPdAtWI_2" d="M220.5,47.6L173.5,47.6L173.5,104.6L220.5,104.6"></path>
	<path class="st0 sDPdAtWI_3" d="M279.5,75.6L239.5,75.6L239.5,104.6L295.5,104.6L295.5,47.6L249.5,47.6"></path>
	<path class="st0 sDPdAtWI_4" d="M476,56L476,105.1L435,105.1L435,58"></path>
	<path class="st0 sDPdAtWI_5" d="M504.2,107.6L504.2,44.6L543.2,44.6L543.2,107.6"></path>
	<path class="st0 sDPdAtWI_6" d="M604.4,67.1L604.4,38.6L565.4,38.6L565.4,71.6L604.4,71.6L613.4,78.6L613.4,122.6L565.4,122.6L
		565.4,80.6L601.4,80.6"></path>
	<path class="st0 sDPdAtWI_7" d="M635.6,18.4L636.1,106.9"></path>
	<path class="st0 sDPdAtWI_8" d="M641,54.3L679,54.3L679.5,106.8"></path>
	<path class="st0 sDPdAtWI_9" d="M740.4,75.6L700.4,75.6L700.4,104.6L756.4,104.6L756.4,47.6L710.4,47.6"></path>
	<path class="st0 sDPdAtWI_10" d="M776,107.1L776,45.1L814.4,45.1L815,107.1"></path>
	<path class="st0 sDPdAtWI_11" d="M873.5,46.9L834.5,46.9L834.5,69.9L873.5,69.9L873.5,105.4L834.5,105.4"></path>
	<path class="st0 sDPdAtWI_12" d="M386,20.6L411.5,20.6L411.5,104.6L374.5,104.6L356,104.6"></path>
</g>
<style>.sDPdAtWI_0{stroke-dasharray:261 263;stroke-dashoffset:262;animation:sDPdAtWI_draw 2300ms ease-in-out 0ms forwards;}.sDPdAtWI_1{stroke-dasharray:149 151;stroke-dashoffset:150;animation:sDPdAtWI_draw 2300ms ease-in-out 0ms forwards;}.sDPdAtWI_2{stroke-dasharray:151 153;stroke-dashoffset:152;animation:sDPdAtWI_draw 2300ms ease-in-out 0ms forwards;}.sDPdAtWI_3{stroke-dasharray:228 230;stroke-dashoffset:229;animation:sDPdAtWI_draw 2300ms ease-in-out 0ms forwards;}.sDPdAtWI_4{stroke-dasharray:138 140;stroke-dashoffset:139;animation:sDPdAtWI_draw 2300ms ease-in-out 0ms forwards;}.sDPdAtWI_5{stroke-dasharray:165 167;stroke-dashoffset:166;animation:sDPdAtWI_draw 2300ms ease-in-out 0ms forwards;}.sDPdAtWI_6{stroke-dasharray:321 323;stroke-dashoffset:322;animation:sDPdAtWI_draw 2300ms ease-in-out 0ms forwards;}.sDPdAtWI_7{stroke-dasharray:89 91;stroke-dashoffset:90;animation:sDPdAtWI_draw 2300ms ease-in-out 0ms forwards;}.sDPdAtWI_8{stroke-dasharray:91 93;stroke-dashoffset:92;animation:sDPdAtWI_draw 2300ms ease-in-out 0ms forwards;}.sDPdAtWI_9{stroke-dasharray:228 230;stroke-dashoffset:229;animation:sDPdAtWI_draw 2300ms ease-in-out 0ms forwards;}.sDPdAtWI_10{stroke-dasharray:163 165;stroke-dashoffset:164;animation:sDPdAtWI_draw 2300ms ease-in-out 0ms forwards;}.sDPdAtWI_11{stroke-dasharray:176 178;stroke-dashoffset:177;animation:sDPdAtWI_draw 2300ms ease-in-out 0ms forwards;}.sDPdAtWI_12{stroke-dasharray:165 167;stroke-dashoffset:166;animation:sDPdAtWI_draw 2300ms ease-in-out 0ms forwards;}@keyframes sDPdAtWI_draw{100%{stroke-dashoffset:0;}}@keyframes sDPdAtWI_fade{0%{stroke-opacity:1;}93.84615384615384%{stroke-opacity:1;}100%{stroke-opacity:0;}}</style></svg>
