<?xml version="1.0" encoding="utf-8"?>
<!-- Generator: Adobe Illustrator 21.0.2, SVG Export Plug-In . SVG Version: 6.00 Build 0)  -->
<svg version="1.1" id="Layer_2" xmlns="http://www.w3.org/2000/svg" xmlns:xlink="http://www.w3.org/1999/xlink" x="0px" y="0px"
	 viewBox="0 0 868.5 253.3" style="enable-background:new 0 0 868.5 253.3;" xml:space="preserve">
<style type="text/css">
	.st0{fill:none;stroke:#333333;stroke-width:4;stroke-miterlimit:10;}
	.st1{fill:none;stroke:#333333;stroke-width:2;stroke-miterlimit:10;}
	.st2{fill:none;stroke:#333333;stroke-miterlimit:10;}
</style>
<title>lucaj</title>
<polygon class="st0" points="66,215.1 2,215.1 2,127.2 "/>
<polyline class="st0" points="130.5,163.6 130.5,214.6 89.5,214.6 89.5,157.6 "/>
<polyline class="st0" points="206.5,157.6 159.5,157.6 159.5,214.6 206.5,214.6 "/>
<polyline class="st0" points="265.5,185.6 225.5,185.6 225.5,214.6 281.5,214.6 281.5,157.6 235.5,157.6 "/>
<polyline class="st0" points="462,166 462,215.1 421,215.1 421,168 "/>
<polyline class="st0" points="490.2,217.6 490.2,154.6 529.2,154.6 529.2,217.6 "/>
<polyline class="st0" points="590.4,177.1 590.4,148.6 551.4,148.6 551.4,181.6 590.4,181.6 599.4,188.6 599.4,232.6 551.4,232.6 
	551.4,190.6 587.4,190.6 "/>
<line class="st0" x1="621.6" y1="128.4" x2="622.1" y2="216.9"/>
<polyline class="st0" points="627,164.3 665,164.3 665.5,216.8 "/>
<polyline class="st0" points="726.4,185.6 686.4,185.6 686.4,214.6 742.4,214.6 742.4,157.6 696.4,157.6 "/>
<polyline class="st0" points="762,217.1 762,155.1 800.4,155.1 801,217.1 "/>
<polyline class="st0" points="859.5,156.9 820.5,156.9 820.5,179.9 859.5,179.9 859.5,215.4 820.5,215.4 "/>
<path class="st0" d="M367.5,0"/>
<g>
	<circle class="st1" cx="421" cy="65.3" r="57.8"/>
	<polygon class="st2" points="424.9,106 380.4,106 379.5,27.5 	"/>
	<polyline class="st2" points="424.9,106 459.2,106 459.2,24.5 436,24.5 	"/>
</g>
<polyline class="st0" points="372,130.6 397.5,130.6 397.5,214.6 360.5,214.6 342,214.6 "/>
</svg>
