<svg id="Layer_2" data-name="Layer 2" xmlns="http://www.w3.org/2000/svg" viewBox="0 0 942.5 128.65">
  <title>lucaj</title>
  <polygon points="66 94.15 2 94.15 2 6.15 66 94.15" style="fill: none;stroke: #333;stroke-miterlimit: 10;stroke-width: 4px"/>
  <polyline points="130.5 36.65 130.5 93.65 89.5 93.65 89.5 49.65" style="fill: none;stroke: #333;stroke-miterlimit: 10;stroke-width: 4px"/>
  <polyline points="206.5 36.65 159.5 36.65 159.5 93.65 206.5 93.65" style="fill: none;stroke: #333;stroke-miterlimit: 10;stroke-width: 4px"/>
  <polyline points="265.5 64.65 225.5 64.65 225.5 93.65 281.5 93.65 272.5 36.65 235.5 36.65" style="fill: none;stroke: #333;stroke-miterlimit: 10;stroke-width: 4px"/>
  <polyline points="335.5 90.65 374.5 90.65 374.5 17.65 355 17.15" style="fill: none;stroke: #333;stroke-miterlimit: 10;stroke-width: 4px"/>
  <polyline points="462 37.15 462 94.15 421 94.15 421 50.15" style="fill: none;stroke: #333;stroke-miterlimit: 10;stroke-width: 4px"/>
  <polyline points="507 100.15 507 37.15 546 48.15 546 100.15" style="fill: none;stroke: #333;stroke-miterlimit: 10;stroke-width: 4px"/>
  <polyline points="623.5 71.15 623.5 42.65 584.5 42.65 584.5 75.65 623.5 75.65 632.5 82.65 632.5 126.65 584.5 126.65 584.5 84.65 620.5 84.65" style="fill: none;stroke: #333;stroke-miterlimit: 10;stroke-width: 4px"/>
  <line x1="660.5" y1="11.65" x2="661" y2="100.15" style="fill: none;stroke: #333;stroke-miterlimit: 10;stroke-width: 4px"/>
  <polyline points="665.5 47.65 703.5 47.65 704 100.15" style="fill: none;stroke: #333;stroke-miterlimit: 10;stroke-width: 4px"/>
  <polyline points="776.5 70.65 736.5 70.65 736.5 99.65 792.5 99.65 783.5 42.65 746.5 42.65" style="fill: none;stroke: #333;stroke-miterlimit: 10;stroke-width: 4px"/>
  <polyline points="826 105.15 826 43.15 864.5 49.65 865 105.15" style="fill: none;stroke: #333;stroke-miterlimit: 10;stroke-width: 4px"/>
  <polyline points="940.5 47.65 901.5 47.65 901.5 70.65 940.5 70.65 940.5 106.15 901.5 106.15" style="fill: none;stroke: #333;stroke-miterlimit: 10;stroke-width: 4px"/>
</svg>
